<svg width="50" height="30" viewBox="0 0 50 30" fill="none" xmlns="http://www.w3.org/2000/svg">
    <g transform="translate(-9 -9)">
        <path
            d="M42.6633 30.3677C41.6402 30.3677 40.7323 30.1913 39.9397 29.8381C39.1469 29.4853 38.5244 28.9981 38.0721 28.3763C37.6655 27.8182 37.44 27.1848 37.3954 26.4762C37.3871 26.3439 37.4939 26.233 37.6261 26.233H40.7304C40.8435 26.233 40.9374 26.3154 40.9578 26.4268C41.0109 26.7172 41.1715 26.9621 41.4394 27.1621C41.7649 27.4053 42.1813 27.5269 42.6887 27.5269C43.179 27.5269 43.5786 27.3991 43.8872 27.143C44.1957 26.8873 44.3459 26.5586 44.3374 26.1568C44.3459 25.764 44.1694 25.4415 43.8079 25.1899C43.4464 24.9382 42.9804 24.8126 42.4096 24.8126H41.3213C41.1939 24.8126 41.0906 24.7093 41.0906 24.5819V22.6083C41.0906 22.4809 41.1939 22.3776 41.3213 22.3776H42.4096C42.9381 22.3776 43.3682 22.252 43.7001 22.0003C44.032 21.7487 44.1937 21.4262 44.1852 21.0329C44.1937 20.657 44.0573 20.347 43.7763 20.1043C43.495 19.8611 43.1325 19.7395 42.6887 19.7395C42.2024 19.7395 41.804 19.8651 41.4933 20.1167C41.236 20.3252 41.0823 20.5817 41.0323 20.8873C41.0138 21 40.9187 21.0837 40.8045 21.0837H37.8796C37.7476 21.0837 37.6408 20.9728 37.6489 20.8414C37.6923 20.1457 37.9084 19.5244 38.2972 18.9783C38.7305 18.3699 39.3255 17.892 40.0823 17.5454C40.8391 17.1989 41.7078 17.0252 42.6887 17.0252C43.6483 17.0252 44.497 17.1882 45.2348 17.5134C45.9725 17.8394 46.5495 18.2861 46.966 18.8549C47.3823 19.4237 47.5885 20.0735 47.5843 20.8049C47.5927 21.5318 47.3443 22.1282 46.8392 22.5932C46.345 23.0479 45.7224 23.321 44.9714 23.4118C44.9427 23.4154 44.9209 23.4394 44.9209 23.4679C44.9209 23.4973 44.9429 23.5214 44.9718 23.5245C45.9948 23.6434 46.7662 23.9619 47.2863 24.4799C47.8147 25.0059 48.0747 25.6665 48.0662 26.4615C48.0704 27.2222 47.8432 27.8966 47.3845 28.4845C46.9258 29.072 46.2895 29.533 45.4757 29.8666C44.6619 30.2006 43.7244 30.3677 42.6633 30.3677Z"
            fill="#798189" />
        <path
            d="M51.4147 19.4348C50.9408 19.4348 50.535 19.2785 50.1969 18.9658C49.8584 18.6531 49.6896 18.2768 49.6896 17.8372C49.6896 17.3975 49.8584 17.0212 50.1969 16.7081C50.535 16.3954 50.9408 16.239 51.4147 16.239C51.8921 16.239 52.2992 16.3954 52.6351 16.7081C52.9714 17.0212 53.1393 17.3975 53.1393 17.8372C53.1393 18.2768 52.9714 18.6531 52.6351 18.9658C52.2992 19.2785 51.8921 19.4348 51.4147 19.4348ZM49.6642 29.9597V20.6802C49.6642 20.5528 49.7676 20.4499 49.895 20.4499H52.9339C53.0613 20.4499 53.1647 20.5528 53.1647 20.6802V29.9597C53.1647 30.0871 53.0613 30.1899 52.9339 30.1899H49.895C49.7676 30.1899 49.6642 30.0871 49.6642 29.9597Z"
            fill="#798189" />
        <path
            d="M16.5907 30.7896H13.2924C13.1294 30.7896 13.0178 30.6248 13.0781 30.4733L19.1325 15.2735C19.1675 15.1858 19.2524 15.1283 19.3468 15.1283H22.6451C22.8081 15.1283 22.9198 15.2927 22.8594 15.4441L16.805 30.6439C16.7701 30.7316 16.6852 30.7896 16.5907 30.7896Z"
            fill="#798189" />
        <path
            d="M29.005 30.7896H25.7067C25.5436 30.7896 25.4321 30.6248 25.4924 30.4733L31.5468 15.2735C31.5817 15.1858 31.6667 15.1283 31.7611 15.1283H35.0594C35.2224 15.1283 35.334 15.2927 35.2737 15.4441L29.2193 30.6439C29.1844 30.7316 29.0994 30.7896 29.005 30.7896Z"
            fill="#798189" />
        <path
            d="M21.6072 33.7928H18.309C18.1459 33.7928 18.0343 33.6285 18.0947 33.4771L24.1491 18.2768C24.184 18.1891 24.2689 18.1316 24.3634 18.1316H27.6616C27.8247 18.1316 27.9363 18.2964 27.8759 18.4478L21.8215 33.6476C21.7866 33.7354 21.7017 33.7928 21.6072 33.7928Z"
            fill="#798189" />
    </g>
</svg>