<?xml version="1.0" encoding="utf-8"?>
<svg viewBox="0 0 95 28" height="100" width="200" version="1.1" xmlns="http://www.w3.org/2000/svg"
    xmlns:xlink="http://www.w3.org/1999/xlink">
    <g fill="#798189" transform="translate(4 4) scale(0.9)">
        <path
            d="M14.742 13.684a5.37 5.37 0 00-1.553-3.866 5.09 5.09 0 00-3.796-1.603 5.09 5.09 0 00-3.8 1.603 5.37 5.37 0 00-1.553 3.873 5.295 5.295 0 001.542 3.836 5.09 5.09 0 003.81 1.586h1.819v3.6H9.393a8.942 8.942 0 01-6.473-2.626 8.596 8.596 0 01-2.695-6.403 8.68 8.68 0 012.706-6.411 8.902 8.902 0 016.473-2.648 8.945 8.945 0 016.483 2.648 8.665 8.665 0 012.702 6.414v9.011h-3.818l-.03-9.014zM62.287 27.956V13.684a8.68 8.68 0 012.695-6.411 9.25 9.25 0 0112.956 0 8.676 8.676 0 012.702 6.429 8.607 8.607 0 01-2.69 6.403 8.978 8.978 0 01-6.495 2.626H66.09v5.225h-3.804zm9.168-8.843a5.09 5.09 0 003.818-1.586 5.305 5.305 0 001.538-3.843 5.385 5.385 0 00-1.567-3.866 5.284 5.284 0 00-7.582 0 5.385 5.385 0 00-1.55 3.873v5.422h5.343zM86.465 11.6h8.524V8h-8.524V.284h-3.789v13.4a8.615 8.615 0 002.684 6.403 8.895 8.895 0 006.458 2.626h3.171v-3.6h-3.17a5.09 5.09 0 01-3.8-1.586 5.305 5.305 0 01-1.539-3.843l-.015-2.084zM35.425 19.113v-5.43a5.37 5.37 0 00-1.552-3.865 5.298 5.298 0 00-7.597 0 5.37 5.37 0 00-1.549 3.866 5.295 5.295 0 001.538 3.843 5.09 5.09 0 003.808 1.586h5.352zM39.273.287v22.426h-9.186a8.942 8.942 0 01-6.472-2.626 8.596 8.596 0 01-2.695-6.403 8.68 8.68 0 012.695-6.411 9.27 9.27 0 0111.84-.946V.287h3.818zM56.055 13.684a5.385 5.385 0 00-1.553-3.866 5.305 5.305 0 00-7.593 0 5.385 5.385 0 00-1.553 3.873 5.31 5.31 0 001.553 3.836 5.09 5.09 0 003.811 1.586h1.818v3.6H50.72a8.945 8.945 0 01-6.473-2.626 8.607 8.607 0 01-2.69-6.403 8.69 8.69 0 012.683-6.411 9.25 9.25 0 0112.956 0 8.665 8.665 0 012.706 6.429v9.007h-3.858l.01-9.025z">
        </path>
    </g>
</svg>