<svg width="233" height="100" xmlns="http://www.w3.org/2000/svg" xmlns:xlink="http://www.w3.org/1999/xlink">
    <g transform="translate(6 20) scale(1.85)">
        <path
            d="M114.871 17.476c-.504-1.955-1.722-2.932-3.653-2.932-.44 0-.852.068-1.239.203a3.537 3.537 0 00-1.054.587 3.698 3.698 0 00-.812.92 4.31 4.31 0 00-.515 1.222h7.273zm3.717 2.998h-11.232c.097 1.303.515 2.34 1.256 3.111.74.76 1.689 1.14 2.848 1.14.9 0 1.646-.217 2.236-.65.58-.435 1.24-1.239 1.98-2.412l3.057 1.727a12.352 12.352 0 01-1.496 2.093 7.992 7.992 0 01-1.69 1.434 6.738 6.738 0 01-1.947.822 9.378 9.378 0 01-2.27.261c-2.338 0-4.215-.76-5.631-2.28-1.416-1.532-2.124-3.563-2.124-6.093 0-2.51.686-4.54 2.06-6.093 1.383-1.532 3.218-2.297 5.503-2.297 2.306 0 4.13.744 5.47 2.232 1.331 1.477 1.996 3.524 1.996 6.141l-.016.864zm-19.017-5.376v12.446h-3.62V15.098h-1.545v-3.421h1.545V5.86h3.62v5.816h2.816v3.42h-2.816zM79.862 19.56c0 1.521.403 2.759 1.207 3.715.826.966 1.867 1.45 3.122 1.45 1.34 0 2.424-.467 3.25-1.401.826-.967 1.24-2.194 1.24-3.682s-.414-2.715-1.24-3.682c-.826-.945-1.898-1.417-3.218-1.417-1.245 0-2.285.478-3.122 1.433-.826.967-1.239 2.162-1.239 3.584zm8.593-7.884h3.637v15.867h-3.637v-1.662C86.964 27.294 85.36 28 83.645 28c-2.168 0-3.96-.793-5.376-2.379-1.405-1.617-2.108-3.638-2.108-6.06 0-2.378.703-4.36 2.108-5.946 1.405-1.586 3.165-2.378 5.278-2.378 1.824 0 3.46.76 4.908 2.28v-1.84zm-22.83 0h3.62v1.417c.665-.706 1.255-1.19 1.77-1.45.526-.272 1.148-.407 1.867-.407.955 0 1.952.315 2.993.944l-1.658 3.356c-.686-.499-1.357-.75-2.011-.75-1.974 0-2.961 1.51-2.961 4.53v8.227h-3.62V11.677zM53.654.028v16.78l5.102-5.131h4.86l-6.807 6.662 7.305 9.205h-4.699l-5.181-6.696-.58.587v6.109h-3.62V.028h3.62zm-19.22 11.649h3.638v1.466c1.265-1.271 2.692-1.906 4.28-1.906 1.823 0 3.245.58 4.264 1.743.88.988 1.32 2.6 1.32 4.838v9.726H44.3v-8.851c0-1.562-.215-2.641-.644-3.238-.418-.607-1.18-.911-2.285-.911-1.201 0-2.054.401-2.558 1.204-.494.792-.74 2.175-.74 4.149v7.647h-3.637V11.677zM20.109 19.56c0 1.521.402 2.759 1.207 3.715.826.966 1.866 1.45 3.122 1.45 1.34 0 2.424-.467 3.25-1.401.826-.967 1.24-2.194 1.24-3.682s-.414-2.715-1.24-3.682c-.826-.945-1.899-1.417-3.218-1.417-1.245 0-2.285.478-3.122 1.433-.826.967-1.239 2.162-1.239 3.584zm8.593-7.884h3.637v15.867H28.7v-1.662C27.21 27.294 25.606 28 23.889 28c-2.167 0-3.958-.793-5.374-2.379-1.405-1.617-2.108-3.638-2.108-6.06 0-2.378.703-4.36 2.108-5.946 1.405-1.586 3.165-2.378 5.278-2.378 1.824 0 3.46.76 4.908 2.28v-1.84zm-24.952 12.3h2.318c1.694 0 2.939-.337 3.733-1.01.837-.728 1.255-1.652 1.255-2.77 0-1.086-.402-1.998-1.207-2.737-.783-.728-2.183-1.092-4.2-1.092H3.75v7.608zm0-10.786h1.175c1.395 0 2.416-.312 3.066-.936.648-.625.973-1.545.973-2.762 0-1.183-.333-2.082-.998-2.696-.665-.613-1.63-.92-2.896-.92h-1.32v7.314zM0 27.544V2.39h3.733c1.663 0 2.988.13 3.975.39.998.261 1.84.701 2.526 1.32.697.641 1.25 1.44 1.658 2.395.418.967.627 1.944.627 2.932 0 1.803-.681 3.33-2.044 4.578 1.32.456 2.36 1.254 3.122 2.395.773 1.13 1.159 2.444 1.159 3.942 0 1.966-.687 3.628-2.06 4.985-.826.837-1.754 1.418-2.784 1.744-1.126.315-2.537.472-4.231.472H0z"
            fill="#798189" />
    </g>
</svg>