<svg width="240" height="100" viewBox="0 0 85 38" fill="none" xmlns="http://www.w3.org/2000/svg">
    <g transform="translate(1, 5) scale(0.77)">
        <path
            d="M59.5724 28.5988C57.1924 28.5988 55.1968 27.7552 53.5517 26.1051C51.9407 24.4188 51.1357 22.3478 51.1357 19.8892C51.1357 17.4306 51.9398 15.3596 53.5517 13.7095C53.9372 13.3152 54.3407 12.9676 54.764 12.6655C56.1506 11.6746 57.7493 11.1797 59.5724 11.1797C61.4505 11.1797 63.1212 11.6813 64.4509 12.6655C65.4728 13.4198 66.293 14.4581 66.8537 15.7691C67.009 16.1329 67.4513 16.2707 67.7809 16.0531L69.9185 14.6462C70.1827 14.4723 70.2812 14.1275 70.1429 13.8425C69.944 13.4321 69.7215 13.0397 69.4762 12.6645C68.7867 11.6071 67.9125 10.6876 66.8556 9.91425C64.789 8.40565 62.3379 7.6333 59.5724 7.6333C56.1771 7.6333 53.2714 8.82745 50.8904 11.2157C50.4292 11.6784 50.0144 12.161 49.644 12.6664C48.1221 14.7326 47.353 17.1532 47.353 19.8902C47.353 23.332 48.5435 26.2466 50.8904 28.5998C53.2705 30.952 56.1761 32.1461 59.5724 32.1461C62.373 32.1461 64.8241 31.3738 66.8906 29.8281C68.2393 28.8183 69.2886 27.5557 70.0302 26.0471C70.1685 25.7659 70.0757 25.4239 69.8171 25.2472L67.7477 23.8308C67.4191 23.6056 66.9721 23.7405 66.812 24.1053C65.5069 27.0636 62.856 28.5988 59.5724 28.5988Z"
            fill="#798189" />
        <path
            d="M85.4128 30.3014C85.5217 30.5969 85.3977 30.9313 85.1202 31.0776C83.7885 31.7806 82.5138 32.1454 81.2939 32.1454C77.408 32.1454 75.027 29.9328 75.027 25.7186V17.2551H71.912C71.5635 17.2551 71.2803 16.972 71.2803 16.6214V14.8677C71.2803 14.5181 71.5625 14.2341 71.912 14.2341H75.027V9.46031C75.027 9.11071 75.3092 8.82666 75.6587 8.82666H78.0368C78.3854 8.82666 78.6686 9.10976 78.6686 9.46031V14.235H83.9893C84.3379 14.235 84.621 14.5181 84.621 14.8687V16.6224C84.621 16.972 84.3388 17.256 83.9893 17.256H78.6686V25.4735C78.6686 27.5806 79.7539 28.7045 81.5392 28.7045C82.3367 28.7045 83.1133 28.5097 83.8672 28.1193C84.2015 27.9464 84.6116 28.1164 84.7413 28.4708L85.4128 30.3014Z"
            fill="#798189" />
        <path
            d="M98.368 14.7236L98.2051 17.054C98.1814 17.3884 97.903 17.6458 97.5686 17.643C97.4427 17.642 97.3016 17.642 97.1463 17.642C92.8398 17.642 90.5649 20.5918 90.5649 25.508V31.0199C90.5649 31.3695 90.2827 31.6536 89.9332 31.6536H87.5551C87.2065 31.6536 86.9233 31.3705 86.9233 31.0199V14.869C86.9233 14.5194 87.2056 14.2353 87.5551 14.2353H89.9332C90.2817 14.2353 90.5649 14.5184 90.5649 14.869V17.9584C92.1409 15.324 94.3457 14.0254 97.1822 14.0254C97.4124 14.0254 97.616 14.032 97.7979 14.0482C98.1388 14.0795 98.3917 14.3807 98.368 14.7236Z"
            fill="#798189" />
        <path
            d="M103.424 6.36914C103.772 6.36914 104.056 6.65224 104.056 7.00279V26.6678C104.056 27.8971 105.001 28.7046 106.296 28.7046C106.743 28.7046 107.226 28.6162 107.743 28.4395C108.097 28.3189 108.478 28.5307 108.562 28.8965L108.985 30.7452C109.052 31.0349 108.909 31.3351 108.64 31.4596C107.664 31.9099 106.665 32.1464 105.666 32.1464C102.55 32.1464 100.414 30.0745 100.414 26.8787V7.00279C100.414 6.65319 100.696 6.36914 101.046 6.36914H103.424V6.36914Z"
            fill="#798189" />
        <path
            d="M31.4039 34.5412L12.5302 37.8795C8.26641 38.6338 4.19959 35.7781 3.4476 31.5003L0.120458 12.5696C-0.631534 8.29273 2.21543 4.21343 6.48019 3.45913L25.3529 0.120828C29.6167 -0.633472 33.6835 2.22223 34.4355 6.50008L37.7636 25.4317C38.5156 29.7086 35.6677 33.7869 31.4039 34.5412Z"
            fill="#798189" />
        <path
            d="M19.1165 26.0538C14.9502 26.0538 10.783 24.5651 7.48709 21.5888C7.11489 21.2525 7.095 20.673 7.44921 20.3177L10.2261 17.5323C10.5472 17.2102 11.0652 17.1855 11.4071 17.4857C15.8102 21.3408 22.4218 21.3408 26.8249 17.4857C27.1668 17.1855 27.6848 17.2102 28.0059 17.5323L30.7828 20.3177C31.137 20.673 31.118 21.2525 30.7449 21.5888C27.4499 24.5661 23.2827 26.0538 19.1165 26.0538Z"
            fill="#494e53" />
    </g>
</svg>