<svg xmlns="http://www.w3.org/2000/svg" xmlns:xlink="http://www.w3.org/1999/xlink" width="280" height="100"
    viewBox="0 0 248 40">
    <g id="Logo-/-Light-/-Linear" stroke="none" stroke-width="1" fill="none" fill-rule="evenodd"
        transform="translate(7 0) scale(0.95)">
        <g id="ShipServ_Master_Logo_CMYK" fill-rule="nonzero">
            <polyline id="Fill-1" fill="#798189"
                points="6.46529312 35.8799647 7.97762376 39.0479857 18.9735372 39.0484408 29.9653547 39.0479857 31.4790507 35.876779 18.9735372 30.4982886 6.46529312 35.8799647">
            </polyline>
            <polyline id="Fill-3" fill="#798189"
                points="6.46529312 35.8799647 18.9735372 30.4982886 0 22.3377106 6.46529312 35.8799647"></polyline>
            <polyline id="Fill-5" fill="#798189"
                points="7.97762376 39.0479857 6.46483801 35.8799647 6.44754383 35.8872465 7.97125222 39.0479857 7.97762376 39.0479857">
            </polyline>
            <polyline id="Fill-6" fill="#798189"
                points="29.9653547 39.0479857 29.9799183 39.0479857 31.5036267 35.8872465 31.4790507 35.876779 29.9653547 39.0479857">
            </polyline>
            <polyline id="Fill-7" fill="#798189"
                points="18.9735372 30.4982886 31.4790507 35.876779 37.9402478 22.3372555 18.9735372 30.4982886">
            </polyline>
            <polyline id="Fill-8" fill="#798189"
                points="18.9735372 39.0484408 29.9648996 39.049351 29.9653547 39.0479857 18.9735372 39.0484408">
            </polyline>
            <g id="Group-13" transform="translate(5.461320, 0.000000)">
                <polyline id="Fill-9" fill="#798189"
                    points="2.51675848 39.049351 13.5122169 39.0484408 2.51584826 39.0479857 2.51675848 39.049351">
                </polyline>
                <path
                    d="M2.5586286,16.8336099 C2.5586286,16.8336099 1.60881396,16.4754383 1.3698812,17.0425054 L0.233471447,19.4973689 C0.233471447,19.4973689 -0.130161469,20.2269103 0.640339815,20.469939 C1.42358418,20.7079616 12.5847026,24.5636538 12.5847026,24.5636538 C12.5847026,24.5636538 13.2386957,24.8917881 14.2235538,24.5636538 L26.1123932,20.0184699 C26.1123932,20.0184699 26.7654761,19.7021684 26.7654761,18.6631522 L26.7654761,12.5847026 C26.7654761,12.5847026 26.7622903,10.5084906 24.5267899,10.5084906 L5.26107197,10.5084906 C5.26107197,10.5084906 4.22387621,10.4948373 4.22387621,9.84994643 C4.22387621,9.20505551 4.22478643,8.60658582 4.22478643,8.60658582 C4.22478643,8.60658582 4.15242393,8.1064199 4.82917255,7.81469437 C5.50956205,7.51341152 12.5746902,4.64803876 12.5746902,4.64803876 C12.5746902,4.64803876 13.2163953,4.22524154 14.2235538,4.5906949 C15.229347,4.93976429 24.4981179,8.23612626 24.4981179,8.23612626 C24.4981179,8.23612626 25.3610066,8.61204714 25.6631996,7.89206307 C25.9681233,7.17799543 26.7750334,5.5436953 26.7750334,5.5436953 C26.7750334,5.5436953 27.2392457,4.86057515 26.1123932,4.49921778 C24.9900919,4.12966843 14.2235538,0.431444311 14.2235538,0.431444311 C14.2235538,0.431444311 13.5900407,0.102854867 12.5746902,0.431444311 C11.5620704,0.760943974 0.963467938,4.99801838 0.963467938,4.99801838 C0.963467938,4.99801838 0.238932767,5.20509344 0.238932767,6.63413894 C0.238932767,8.07228664 0.233471447,12.4222283 0.233471447,12.4222283 C0.233471447,12.4222283 0.339512084,14.5312082 2.51175227,14.5312082 L21.8025012,14.5312082 C21.8025012,14.5312082 22.7791673,14.5407655 22.7791673,15.2115977 L22.7791673,16.3825958 C22.7791673,16.3825958 22.8629076,16.916895 22.2585215,17.1885957 C21.6514047,17.4621168 14.2235538,20.4421773 14.2235538,20.4421773 C14.2235538,20.4421773 13.5845794,20.808996 12.5746902,20.4421773 C11.568897,20.0849159 2.5586286,16.8336099 2.5586286,16.8336099"
                    id="Fill-11" fill="#798189"></path>
                <path
                    d="M2.5586286,16.8336099 C2.5586286,16.8336099 1.60881396,16.4754383 1.3698812,17.0425054 L0.233471447,19.4973689 C0.233471447,19.4973689 -0.130161469,20.2269103 0.640339815,20.469939 C1.42358418,20.7079616 12.5847026,24.5636538 12.5847026,24.5636538 C12.5847026,24.5636538 13.2386957,24.8917881 14.2235538,24.5636538 L26.1123932,20.0184699 C26.1123932,20.0184699 26.7654761,19.7021684 26.7654761,18.6631522 L26.7654761,12.5847026 C26.7654761,12.5847026 26.7622903,10.5084906 24.5267899,10.5084906 L5.26107197,10.5084906 C5.26107197,10.5084906 4.22387621,10.4948373 4.22387621,9.84994643 C4.22387621,9.20505551 4.22478643,8.60658582 4.22478643,8.60658582 C4.22478643,8.60658582 4.15242393,8.1064199 4.82917255,7.81469437 C5.50956205,7.51341152 12.5746902,4.64803876 12.5746902,4.64803876 C12.5746902,4.64803876 13.2163953,4.22524154 14.2235538,4.5906949 C15.229347,4.93976429 24.4981179,8.23612626 24.4981179,8.23612626 C24.4981179,8.23612626 25.3610066,8.61204714 25.6631996,7.89206307 C25.9681233,7.17799543 26.7750334,5.5436953 26.7750334,5.5436953 C26.7750334,5.5436953 27.2392457,4.86057515 26.1123932,4.49921778 C24.9900919,4.12966843 14.2235538,0.431444311 14.2235538,0.431444311 C14.2235538,0.431444311 13.5900407,0.102854867 12.5746902,0.431444311 C11.5620704,0.760943974 0.963467938,4.99801838 0.963467938,4.99801838 C0.963467938,4.99801838 0.238932767,5.20509344 0.238932767,6.63413894 C0.238932767,8.07228664 0.233471447,12.4222283 0.233471447,12.4222283 C0.233471447,12.4222283 0.339512084,14.5312082 2.51175227,14.5312082 L21.8025012,14.5312082 C21.8025012,14.5312082 22.7791673,14.5407655 22.7791673,15.2115977 L22.7791673,16.3825958 C22.7791673,16.3825958 22.8629076,16.916895 22.2585215,17.1885957 C21.6514047,17.4621168 14.2235538,20.4421773 14.2235538,20.4421773 C14.2235538,20.4421773 13.5845794,20.808996 12.5746902,20.4421773 C11.568897,20.0849159 2.5586286,16.8336099 2.5586286,16.8336099"
                    id="Fill-12" fill="#798189"></path>
            </g>
            <path
                d="M57.2969877,29.3181883 C57.9145721,31.7066057 59.6849501,32.898994 62.7724165,32.898994 C64.7880989,32.898994 65.9818525,32.0365605 65.9818525,30.9251818 C65.9818525,28.8234837 63.9648048,28.9072239 60.1778342,27.9178147 C53.716182,26.2725919 50.5882108,23.968825 50.5882108,19.2757303 C50.5882108,13.8426267 55.2394353,9.80898653 62.8538812,9.80898653 C68.4503693,9.80898653 72.3638605,12.3202837 74.1742882,16.9715082 L66.8852459,19.0704757 C66.0219022,17.0106477 64.623349,16.1891741 62.2790773,16.1891741 C60.549204,16.1891741 59.3549953,17.1380785 59.3549953,18.2462714 C59.3549953,19.9347296 61.2100238,20.0166494 64.5814789,20.8403986 C67.3813158,21.5403578 69.975443,21.9950128 72.19638,23.7608397 C74.0077179,25.2039936 74.9538917,27.3029611 74.9538917,29.854763 C74.9538917,32.2427254 73.9649376,34.5073529 72.1572405,36.1930804 C69.8093279,38.3762433 66.5166068,39.5659009 62.6076667,39.5659009 C55.3614048,39.5659009 50.6309911,36.35692 49.2706672,30.8405313 L57.2969877,29.3181883"
                id="Fill-14" fill="#798189"></path>
            <polyline id="Fill-15" fill="#798189"
                points="77.2945226 10.4661654 86.0631276 10.4661654 86.0631276 21.0451981 92.7313997 21.0451981 92.7313997 10.4661654 101.495454 10.4661654 101.495454 39.0297813 92.7313997 39.0297813 92.7313997 27.7134703 86.0631276 27.7134703 86.0631276 39.0297813 77.2945226 39.0297813 77.2945226 10.4661654">
            </polyline>
            <polygon id="Fill-16" fill="#798189"
                points="105.237368 39.0297813 114.167992 39.0297813 114.167992 10.4652552 105.237368 10.4652552">
            </polygon>
            <path
                d="M129.024604,22.5274915 C131.413022,22.5274915 132.772891,21.4593482 132.772891,19.729475 C132.772891,17.9172269 131.661057,16.9310034 129.559359,16.9310034 L126.679422,16.9310034 L126.679422,22.5274915 L129.024604,22.5274915 Z M117.910817,10.4666205 L130.093658,10.4666205 C133.552949,10.4666205 136.146166,10.8370801 137.957504,11.9470935 C140.631276,13.6382823 142.029374,16.271549 142.029374,19.5228551 C142.029374,24.8726735 137.998009,28.6195944 131.739336,28.6195944 L126.679422,28.6195944 L126.679422,39.0311466 L117.910817,39.0311466 L117.910817,10.4666205 L117.910817,10.4666205 Z"
                id="Fill-17" fill="#798189"></path>
            <path
                d="M150.216348,29.3181883 C150.832567,31.7066057 152.602945,32.898994 155.690411,32.898994 C157.707459,32.898994 158.898482,32.0365605 158.898482,30.9251818 C158.898482,28.8234837 156.884165,28.9072239 153.10038,27.9178147 C146.635542,26.2725919 143.507571,23.968825 143.507571,19.2757303 C143.507571,13.8426267 148.157885,9.80898653 155.773697,9.80898653 C161.368364,9.80898653 165.28231,12.3202837 167.093648,16.9715082 L159.804606,19.0704757 C158.943538,17.0106477 157.544075,16.1891741 155.195707,16.1891741 C153.468564,16.1891741 152.275721,17.1380785 152.275721,18.2462714 C152.275721,19.9347296 154.126653,20.0166494 157.501294,20.8403986 C160.301586,21.5403578 162.893438,21.9950128 165.11574,23.7608397 C166.927533,25.2039936 167.873707,27.3029611 167.873707,29.854763 C167.873707,32.2427254 166.888849,34.5073529 165.075235,36.1930804 C162.727323,38.3762433 159.433691,39.5659009 155.524296,39.5659009 C148.28122,39.5659009 143.551262,36.35692 142.190027,30.8405313 L150.216348,29.3181883"
                id="Fill-18" fill="#798189"></path>
            <polyline id="Fill-19" fill="#798189"
                points="170.213883 10.4661654 191.740132 10.4661654 191.740132 17.1371683 178.571068 17.1371683 178.571068 21.3346481 189.396771 21.3346481 189.396771 27.5086708 178.571068 27.5086708 178.571068 32.3651499 191.903972 32.3651499 191.903972 39.0297813 170.213883 39.0297813 170.213883 10.4661654">
            </polyline>
            <path
                d="M203.508822,16.5582683 L203.508822,22.1588524 L207.666708,22.1588524 C209.80618,22.1588524 211.121903,20.924594 211.121903,19.3594706 C211.121903,17.4643924 209.92906,16.5582683 207.543828,16.5582683 L203.508822,16.5582683 Z M194.823503,10.4661654 L208.778086,10.4661654 C216.225052,10.4661654 219.971063,13.2259526 219.971063,18.8233509 C219.971063,22.690876 218.201595,25.4074278 214.992159,26.5611317 L220.135357,39.0297813 L210.754629,39.0297813 L206.511638,28.2081749 L203.508822,28.2081749 L203.508822,39.0297813 L194.823503,39.0297813 L194.823503,10.4661654 L194.823503,10.4661654 Z"
                id="Fill-20" fill="#798189"></path>
            <polyline id="Fill-21" fill="#798189"
                points="239.062473 10.4666205 233.710834 29.6513288 228.650921 10.4666205 219.512767 10.4666205 228.525766 39.0297813 237.251591 39.0297813 246.387014 10.4666205 239.062473 10.4666205">
            </polyline>
            <path
                d="M57.2969877,29.3181883 C57.9145721,31.7066057 59.6849501,32.898994 62.7724165,32.898994 C64.7880989,32.898994 65.9818525,32.0365605 65.9818525,30.9251818 C65.9818525,28.8234837 63.9648048,28.9072239 60.1778342,27.9178147 C53.716182,26.2725919 50.5882108,23.968825 50.5882108,19.2757303 C50.5882108,13.8426267 55.2394353,9.80898653 62.8538812,9.80898653 C68.4503693,9.80898653 72.3638605,12.3202837 74.1742882,16.9715082 L66.8852459,19.0704757 C66.0219022,17.0106477 64.623349,16.1891741 62.2790773,16.1891741 C60.549204,16.1891741 59.3549953,17.1380785 59.3549953,18.2462714 C59.3549953,19.9347296 61.2100238,20.0166494 64.5814789,20.8403986 C67.3813158,21.5403578 69.975443,21.9950128 72.19638,23.7608397 C74.0077179,25.2039936 74.9538917,27.3029611 74.9538917,29.854763 C74.9538917,32.2427254 73.9649376,34.5073529 72.1572405,36.1930804 C69.8093279,38.3762433 66.5166068,39.5659009 62.6076667,39.5659009 C55.3614048,39.5659009 50.6309911,36.35692 49.2706672,30.8405313 L57.2969877,29.3181883"
                id="Fill-22" fill="#798189"></path>
            <polyline id="Fill-23" fill="#798189"
                points="77.2945226 10.4661654 86.0631276 10.4661654 86.0631276 21.0451981 92.7313997 21.0451981 92.7313997 10.4661654 101.495454 10.4661654 101.495454 39.0297813 92.7313997 39.0297813 92.7313997 27.7134703 86.0631276 27.7134703 86.0631276 39.0297813 77.2945226 39.0297813 77.2945226 10.4661654">
            </polyline>
            <polygon id="Fill-24" fill="#798189"
                points="105.237368 39.0297813 114.167992 39.0297813 114.167992 10.4652552 105.237368 10.4652552">
            </polygon>
            <path
                d="M129.024604,22.5274915 C131.413022,22.5274915 132.772891,21.4593482 132.772891,19.729475 C132.772891,17.9172269 131.661057,16.9310034 129.559359,16.9310034 L126.679422,16.9310034 L126.679422,22.5274915 L129.024604,22.5274915 Z M117.910817,10.4666205 L130.093658,10.4666205 C133.552949,10.4666205 136.146166,10.8370801 137.957504,11.9470935 C140.631276,13.6382823 142.029374,16.271549 142.029374,19.5228551 C142.029374,24.8726735 137.998009,28.6195944 131.739336,28.6195944 L126.679422,28.6195944 L126.679422,39.0311466 L117.910817,39.0311466 L117.910817,10.4666205 L117.910817,10.4666205 Z"
                id="Fill-25" fill="#798189"></path>
            <path
                d="M150.216348,29.3181883 C150.832567,31.7066057 152.602945,32.898994 155.690411,32.898994 C157.707459,32.898994 158.898482,32.0365605 158.898482,30.9251818 C158.898482,28.8234837 156.884165,28.9072239 153.10038,27.9178147 C146.635542,26.2725919 143.507571,23.968825 143.507571,19.2757303 C143.507571,13.8426267 148.157885,9.80898653 155.773697,9.80898653 C161.368364,9.80898653 165.28231,12.3202837 167.093648,16.9715082 L159.804606,19.0704757 C158.943538,17.0106477 157.544075,16.1891741 155.195707,16.1891741 C153.468564,16.1891741 152.275721,17.1380785 152.275721,18.2462714 C152.275721,19.9347296 154.126653,20.0166494 157.501294,20.8403986 C160.301586,21.5403578 162.893438,21.9950128 165.11574,23.7608397 C166.927533,25.2039936 167.873707,27.3029611 167.873707,29.854763 C167.873707,32.2427254 166.888849,34.5073529 165.075235,36.1930804 C162.727323,38.3762433 159.433691,39.5659009 155.524296,39.5659009 C148.28122,39.5659009 143.551262,36.35692 142.190027,30.8405313 L150.216348,29.3181883"
                id="Fill-26" fill="#798189"></path>
            <polyline id="Fill-27" fill="#798189"
                points="170.213883 10.4661654 191.740132 10.4661654 191.740132 17.1371683 178.571068 17.1371683 178.571068 21.3346481 189.396771 21.3346481 189.396771 27.5086708 178.571068 27.5086708 178.571068 32.3651499 191.903972 32.3651499 191.903972 39.0297813 170.213883 39.0297813 170.213883 10.4661654">
            </polyline>
            <path
                d="M203.508822,16.5582683 L203.508822,22.1588524 L207.666708,22.1588524 C209.80618,22.1588524 211.121903,20.924594 211.121903,19.3594706 C211.121903,17.4643924 209.92906,16.5582683 207.543828,16.5582683 L203.508822,16.5582683 Z M194.823503,10.4661654 L208.778086,10.4661654 C216.225052,10.4661654 219.971063,13.2259526 219.971063,18.8233509 C219.971063,22.690876 218.201595,25.4074278 214.992159,26.5611317 L220.135357,39.0297813 L210.754629,39.0297813 L206.511638,28.2081749 L203.508822,28.2081749 L203.508822,39.0297813 L194.823503,39.0297813 L194.823503,10.4661654 L194.823503,10.4661654 Z"
                id="Fill-28" fill="#798189"></path>
            <g id="Group-32" transform="translate(219.292873, 10.467531)" fill="#798189">
                <polyline id="Fill-29"
                    points="19.7696005 -0.000910220065 14.4179617 19.1837981 9.35804834 -0.000910220065 0.219893997 -0.000910220065 9.23289308 28.5622505 17.9587177 28.5622505 27.0941414 -0.000910220065 19.7696005 -0.000910220065">
                </polyline>
            </g>
        </g>
    </g>
</svg>