<?xml version="1.0" encoding="utf-8"?>
<svg version="1.1" id="Shipbuilder_x2B_Payoff" xmlns="http://www.w3.org/2000/svg"
	xmlns:xlink="http://www.w3.org/1999/xlink" x="0px" y="0px" viewBox="0 0 499.1 147.7" xml:space="preserve"
	height="100" width="250">
	<style type="text/css">
		.st0 {
			fill: none;
		}

		.st1 {
			fill: #798189;
		}

		.st2 {
			fill: #798189;
		}
	</style>
	<g transform="translate(5 0)">
		<rect x="0.5" y="-0.1" class="st0" width="498.8" height="147.9" />
		<g>
			<g>
				<path class="st1" d="M78.3,16.9c-13.8,2.5-24.7,11.7-30.4,23.8c5.3-4.4,11.7-7.5,18.9-8.8c23-4.2,45.1,11.7,49.5,35.5
				c1.7,9.5,0.4,18.8-3.4,26.9c11.6-9.7,17.8-25.5,14.8-41.8C123.4,28.5,101.2,12.7,78.3,16.9z" />
				<g id="layer1_00000007425879179679430470000015011895727820133020_">
					<path class="st2" d="M87.7,111.4c-19.9,1.3-38-7.6-48.3-22.1c5.3,14.5,18.8,27.9,35.9,33.8c24.2,8.3,46.5-1.5,49.8-21.9
					c0.4-2.6,0.5-5.2,0.3-7.9C116.3,103.6,103,110.4,87.7,111.4z" />
				</g>
				<path class="st1" d="M29,81.5c-5.5-30.3,12.6-59.6,41.4-69.9c-3.5,0.1-7.1,0.4-10.7,1.1C24.9,19,1.7,51.6,7.9,85.4
				c6.2,33.8,39.4,56,74.2,49.6c3.6-0.7,7.1-1.6,10.4-2.8C61.8,132.8,34.5,111.8,29,81.5z" />
			</g>
			<g>
				<path class="st2" d="M170.1,72.2l2.7-6.1c0.8,0.5,1.9,0.9,3.3,1.3c1.4,0.4,2.7,0.6,3.7,0.6c1.2,0,2.1-0.2,2.9-0.7
				c0.7-0.5,1.1-1,1.1-1.6c0-0.4-0.3-0.8-0.8-1.1c-0.5-0.4-1.4-0.9-2.5-1.6l-1.4-0.8c-2-1.2-3.6-2.2-4.7-3c-1.1-0.8-2.1-1.8-3-3.1
				c-0.9-1.2-1.3-2.7-1.3-4.2c0-1.7,0.5-3.2,1.4-4.5c0.9-1.3,2.2-2.4,3.9-3.1c1.7-0.7,3.7-1.1,5.9-1.1c1.5,0,3.1,0.2,4.7,0.7
				c1.6,0.4,3,1.1,4.2,1.8l-2.4,5.5c-1.6-0.5-2.8-0.9-3.6-1.1c-0.8-0.2-1.8-0.3-2.8-0.3c-0.9,0-1.6,0.2-2.2,0.6
				c-0.5,0.4-0.8,0.9-0.8,1.5c0,0.4,0.2,0.8,0.7,1.2c0.5,0.3,1.2,0.8,2.3,1.4l1.6,0.9c1.9,1.1,3.4,2.1,4.7,3c1.2,0.9,2.3,2,3.2,3.2
				c0.9,1.2,1.3,2.6,1.3,4.2c0,1.7-0.5,3.3-1.5,4.6c-1,1.3-2.4,2.4-4.2,3.2c-1.8,0.8-4,1.2-6.4,1.2c-1.6,0-3.3-0.2-5.3-0.7
				C172.8,73.4,171.2,72.8,170.1,72.2z" />
				<path class="st2" d="M217,74V62.2h-10.6V74h-8.1V43.7l8.1-0.3v12.3H217V43.7h8.1V74H217z" />
				<path class="st2" d="M234,74V43.7h8.1V74H234z" />
				<path class="st2" d="M259.2,74h-8.1V43.7h12.7c2.3,0,4.4,0.4,6.3,1.2c1.9,0.8,3.4,2,4.5,3.7c1.1,1.6,1.7,3.6,1.7,6
				c0,2.3-0.6,4.3-1.8,5.9c-1.2,1.6-2.8,2.8-4.7,3.5c-1.9,0.8-4.1,1.2-6.3,1.2h-4.3V74z M263.5,50.1h-4.4v8.7h4.5
				c1.2,0,2.3-0.4,3.1-1.2s1.2-1.8,1.2-3c0-1.4-0.4-2.5-1.2-3.3C265.9,50.5,264.9,50.1,263.5,50.1z" />
				<path class="st2"
					d="M293.9,74h-11.4V43.7h10.6c3.6,0,6.6,0.7,8.9,2.2c2.4,1.5,3.5,3.6,3.5,6.5c0,1.1-0.3,2-0.8,2.9
				c-0.5,0.9-1.2,1.7-2,2.6c1.2,0.9,2.2,1.9,3,3.1c0.7,1.2,1.1,2.5,1.1,3.9c0,3.2-1.2,5.5-3.6,6.9C300.7,73.3,297.7,74,293.9,74z
				 M292.8,50.1h-2.2v5.1h1.8c1.3,0,2.5-0.2,3.4-0.6c0.9-0.4,1.4-1,1.4-1.8c0-0.9-0.4-1.6-1.2-2C295.2,50.3,294.2,50.1,292.8,50.1z
				 M294,61.6h-3.4v6.1h3.5c1.3,0,2.3-0.2,3.1-0.7c0.8-0.5,1.2-1.2,1.2-2.1c0-1-0.4-1.8-1.2-2.4C296.5,61.9,295.4,61.6,294,61.6z" />
				<path class="st2" d="M320.7,43.7V62c0,1.8,0.5,3.3,1.5,4.3c1,1,2.3,1.5,4,1.5s3-0.5,4-1.5s1.5-2.5,1.5-4.3V43.7h8.1v18.7
				c0,2.6-0.6,4.8-1.7,6.6c-1.1,1.8-2.7,3.2-4.8,4.2c-2,0.9-4.4,1.4-7.1,1.4s-5.1-0.5-7.1-1.4c-2-1-3.6-2.3-4.8-4.2
				c-1.1-1.8-1.7-4-1.7-6.6V43.7H320.7z" />
				<path class="st2" d="M348.2,74V43.7h8.1V74H348.2z" />
				<path class="st2" d="M387,74h-21.7V43.7h8.1v23.9h12.9L387,74z" />
				<path class="st2" d="M406.3,74h-13.5V43.7h13.7c3,0,5.6,0.6,7.8,1.9s3.8,3,4.9,5.3c1.1,2.3,1.6,4.8,1.6,7.8
				c0,3.1-0.6,5.8-1.8,8.1c-1.2,2.3-2.9,4.1-5.1,5.3C411.6,73.4,409.1,74,406.3,74z M406.1,50.1h-5.2v17.6h4.9c2,0,3.6-0.8,4.8-2.3
				c1.2-1.5,1.8-3.8,1.8-6.6c0-2.6-0.6-4.6-1.7-6.2C409.6,50.9,408.1,50.1,406.1,50.1z" />
				<path class="st2" d="M427.5,74V43.7h20.1l0.8,6.4h-12.7v5.5h9.3l0.8,6.4h-10.1v5.7h13.3l0.8,6.4H427.5z" />
				<path class="st2" d="M455.9,43.7h12.7c3.6,0,6.6,0.9,9,2.6c2.3,1.7,3.5,4.3,3.5,7.8c0,1.8-0.4,3.3-1.1,4.7
				c-0.7,1.4-1.7,2.5-3,3.3l6.7,11.9h-9.4l-4.9-9.5H464V74h-8.1V43.7z M468.3,50.1H464v8h4.5c1.2,0,2.3-0.4,3.1-1.1
				c0.8-0.8,1.2-1.7,1.2-2.9c0-1.3-0.4-2.3-1.1-3C470.8,50.4,469.7,50.1,468.3,50.1z" />
			</g>
			<g>
				<path class="st1" d="M170.6,103.8v-15h2.5v15H170.6z" />
				<path class="st1" d="M178.7,103.8h-2.5V93.2h1.6l0.4,1.3c0.6-0.5,1.3-0.9,2-1.2c0.7-0.3,1.4-0.4,2.1-0.4c1.2,0,2.1,0.4,2.7,1.1
				c0.6,0.7,0.8,1.8,0.8,3v6.9h-2.5v-6.7c0-1.5-0.6-2.2-1.7-2.2c-0.9,0-1.9,0.5-3.1,1.5V103.8z" />
				<path class="st1" d="M193.3,93.2l0.7,1.9h-2.7v5.1c0,0.6,0.1,1,0.4,1.4c0.3,0.3,0.6,0.5,1.2,0.5c0.3,0,0.7-0.1,1.1-0.3l0.7,1.8
				c-0.2,0.1-0.5,0.3-0.9,0.4s-0.7,0.2-1.1,0.2c-1.2,0-2.1-0.3-2.8-0.9c-0.7-0.6-1-1.5-1-2.7v-5.5h-1.5v-1.9h1.5v-2.6l2.5-0.5v3.1
				H193.3z" />
				<path class="st1" d="M205.6,99.1h-7.4c0.2,1.9,1.4,2.9,3.4,2.9c0.6,0,1.1-0.1,1.5-0.2s1-0.4,1.6-0.7l0.7,1.8
				c-1.2,0.8-2.5,1.2-3.9,1.2c-1.9,0-3.4-0.5-4.4-1.5c-1-1-1.5-2.4-1.5-4.1c0-1.1,0.2-2.1,0.6-2.9s1-1.5,1.8-2
				c0.8-0.5,1.7-0.7,2.8-0.7c1.6,0,2.8,0.5,3.6,1.6c0.8,1,1.2,2.4,1.2,4V99.1z M198.3,97.5h5c-0.1-0.8-0.4-1.4-0.8-1.9
				c-0.4-0.4-1-0.6-1.6-0.6c-0.7,0-1.3,0.2-1.7,0.7C198.6,96.1,198.4,96.7,198.3,97.5z" />
				<path class="st1" d="M207.7,103.8V88.5l2.5-0.2v15.5H207.7z" />
				<path class="st1" d="M213.1,103.8V88.5l2.5-0.2v15.5H213.1z" />
				<path class="st1" d="M219.5,91.4c-0.4,0-0.8-0.1-1-0.4s-0.4-0.6-0.4-1c0-0.4,0.1-0.7,0.4-1c0.3-0.3,0.6-0.4,1-0.4
				c0.4,0,0.8,0.1,1,0.4c0.3,0.3,0.4,0.6,0.4,1c0,0.4-0.1,0.8-0.4,1C220.2,91.3,219.9,91.4,219.5,91.4z M218.3,103.8V93.2h2.5v10.7
				H218.3z" />
				<path class="st1" d="M232.8,93.2v11.4c0,1.3-0.5,2.4-1.4,3.2s-2.3,1.2-3.9,1.2c-0.5,0-1.2-0.1-2.1-0.3c-0.8-0.2-1.5-0.5-2-0.8
				l0.7-1.8c0.7,0.3,1.2,0.5,1.7,0.7c0.5,0.1,1,0.2,1.5,0.2c0.9,0,1.6-0.2,2.1-0.6c0.5-0.4,0.8-1,0.8-1.7v-1.1
				c-0.4,0.2-0.8,0.4-1.2,0.5s-0.8,0.2-1.2,0.2c-1.1,0-2-0.2-2.8-0.7c-0.8-0.5-1.4-1.1-1.8-2c-0.4-0.9-0.6-1.8-0.6-3
				c0-1.1,0.2-2.1,0.6-2.9c0.4-0.8,1.1-1.5,1.9-2c0.8-0.5,1.8-0.7,2.8-0.7c0.4,0,0.9,0.1,1.5,0.3c0.5,0.2,1,0.5,1.5,0.8l0.5-0.9
				H232.8z M229.2,101.8c0.4-0.1,0.7-0.4,1.1-0.7v-5.2c-0.4-0.3-0.7-0.5-1.1-0.7c-0.4-0.1-0.8-0.2-1.2-0.2c-0.9,0-1.6,0.3-2.1,1
				c-0.5,0.6-0.8,1.5-0.8,2.5c0,1.1,0.3,1.9,0.8,2.6c0.5,0.6,1.2,1,2.1,1C228.4,102,228.8,101.9,229.2,101.8z" />
				<path class="st1" d="M244.8,99.1h-7.4c0.2,1.9,1.4,2.9,3.4,2.9c0.6,0,1.1-0.1,1.5-0.2s1-0.4,1.6-0.7l0.7,1.8
				c-1.2,0.8-2.5,1.2-3.9,1.2c-1.9,0-3.4-0.5-4.4-1.5c-1-1-1.5-2.4-1.5-4.1c0-1.1,0.2-2.1,0.6-2.9s1-1.5,1.8-2
				c0.8-0.5,1.7-0.7,2.8-0.7c1.6,0,2.8,0.5,3.6,1.6c0.8,1,1.2,2.4,1.2,4V99.1z M237.4,97.5h5c-0.1-0.8-0.4-1.4-0.8-1.9
				c-0.4-0.4-1-0.6-1.6-0.6c-0.7,0-1.3,0.2-1.7,0.7C237.8,96.1,237.5,96.7,237.4,97.5z" />
				<path class="st1" d="M249.1,103.8h-2.5V93.2h1.6l0.4,1.3c0.6-0.5,1.3-0.9,2-1.2c0.7-0.3,1.4-0.4,2.1-0.4c1.2,0,2.1,0.4,2.7,1.1
				c0.6,0.7,0.8,1.8,0.8,3v6.9h-2.5v-6.7c0-1.5-0.6-2.2-1.7-2.2c-0.9,0-1.9,0.5-3.1,1.5V103.8z" />
				<path class="st1"
					d="M263.6,93.2l0.7,1.9h-2.7v5.1c0,0.6,0.1,1,0.4,1.4s0.6,0.5,1.2,0.5c0.3,0,0.7-0.1,1.1-0.3l0.7,1.8
				c-0.2,0.1-0.5,0.3-0.9,0.4s-0.7,0.2-1.1,0.2c-1.2,0-2.1-0.3-2.8-0.9s-1-1.5-1-2.7v-5.5h-1.5v-1.9h1.5v-2.6l2.5-0.5v3.1H263.6z" />
				<path class="st1"
					d="M278.6,99.2l-3.9-5.2v9.9h-2.5v-15h1.5L279,96l4.8-7.2h1.5v15h-2.5v-9.5l-3.3,4.7L278.6,99.2z" />
				<path class="st1" d="M289.5,95.8l-0.7-2c0.4-0.2,1-0.5,1.8-0.7c0.8-0.2,1.4-0.3,1.9-0.3c0.8,0,1.6,0.2,2.3,0.5
				c0.7,0.3,1.2,0.8,1.6,1.4c0.4,0.6,0.6,1.2,0.6,1.9v7.1h-1.7l-0.4-1.1c-0.4,0.4-0.9,0.7-1.4,1c-0.5,0.2-1.1,0.4-1.6,0.4
				c-1.2,0-2.2-0.3-2.8-0.9c-0.6-0.6-1-1.4-1-2.5c0-1.1,0.4-1.9,1.1-2.5c0.7-0.6,1.7-0.9,2.9-0.9h2.3c0-1.5-0.7-2.2-1.9-2.2
				C291.6,95.1,290.6,95.4,289.5,95.8z M290.4,100.7c0,0.4,0.1,0.7,0.4,1c0.3,0.3,0.7,0.4,1.1,0.4c0.5,0,0.9-0.1,1.4-0.3
				c0.5-0.2,0.9-0.5,1.2-0.9V99h-2.4c-0.5,0-1,0.2-1.3,0.5S290.4,100.2,290.4,100.7z" />
				<path class="st1" d="M301.9,103.8h-2.5V93.2h1.3l0.8,1.8c0.5-0.4,1.1-0.8,1.8-1.2c0.7-0.4,1.3-0.6,1.8-0.6l0.5,2
				c-0.5,0-1.1,0.2-1.8,0.5c-0.7,0.4-1.3,0.8-1.9,1.3V103.8z" />
				<path class="st1" d="M308.4,91.4c-0.4,0-0.8-0.1-1-0.4s-0.4-0.6-0.4-1c0-0.4,0.1-0.7,0.4-1c0.3-0.3,0.6-0.4,1-0.4
				c0.4,0,0.8,0.1,1,0.4s0.4,0.6,0.4,1c0,0.4-0.1,0.8-0.4,1S308.8,91.4,308.4,91.4z M307.1,103.8V93.2h2.5v10.7H307.1z" />
				<path class="st1" d="M317,93.2l0.7,1.9h-2.7v5.1c0,0.6,0.1,1,0.4,1.4c0.3,0.3,0.6,0.5,1.2,0.5c0.3,0,0.7-0.1,1.1-0.3l0.7,1.8
				c-0.2,0.1-0.5,0.3-0.9,0.4s-0.7,0.2-1.1,0.2c-1.2,0-2.1-0.3-2.8-0.9c-0.7-0.6-1-1.5-1-2.7v-5.5h-1.5v-1.9h1.5v-2.6l2.5-0.5v3.1
				H317z" />
				<path class="st1" d="M321.2,91.4c-0.4,0-0.8-0.1-1-0.4s-0.4-0.6-0.4-1c0-0.4,0.1-0.7,0.4-1c0.3-0.3,0.6-0.4,1-0.4
				c0.4,0,0.8,0.1,1,0.4s0.4,0.6,0.4,1c0,0.4-0.1,0.8-0.4,1S321.7,91.4,321.2,91.4z M320,103.8V93.2h2.5v10.7H320z" />
				<path class="st1" d="M340.4,93.8c0.5,0.7,0.8,1.7,0.8,2.9v7.1h-2.5v-6.7c0-0.7-0.1-1.3-0.3-1.7c-0.2-0.4-0.6-0.6-1.2-0.6
				c-0.4,0-0.9,0.1-1.3,0.4c-0.5,0.2-1,0.6-1.5,1c0,0.1,0,0.3,0,0.5v7.1h-2.5v-6.7c0-0.7-0.1-1.3-0.3-1.7s-0.6-0.6-1.2-0.6
				c-0.8,0-1.8,0.5-2.9,1.5v7.5H325V93.2h1.6l0.4,1.3c0.6-0.5,1.3-0.9,2-1.2c0.7-0.3,1.3-0.4,1.9-0.4c1.4,0,2.4,0.5,2.9,1.6
				c0.6-0.5,1.3-0.9,2-1.2c0.7-0.3,1.3-0.4,1.9-0.4C339,92.8,339.9,93.1,340.4,93.8z" />
				<path class="st1" d="M353,99.1h-7.4c0.2,1.9,1.4,2.9,3.4,2.9c0.6,0,1.1-0.1,1.5-0.2c0.4-0.2,1-0.4,1.6-0.7l0.7,1.8
				c-1.2,0.8-2.5,1.2-3.9,1.2c-1.9,0-3.4-0.5-4.4-1.5s-1.5-2.4-1.5-4.1c0-1.1,0.2-2.1,0.6-2.9s1-1.5,1.8-2c0.8-0.5,1.7-0.7,2.8-0.7
				c1.6,0,2.8,0.5,3.6,1.6c0.8,1,1.2,2.4,1.2,4V99.1z M345.6,97.5h5c-0.1-0.8-0.4-1.4-0.8-1.9c-0.4-0.4-1-0.6-1.7-0.6
				c-0.7,0-1.3,0.2-1.7,0.7S345.7,96.7,345.6,97.5z" />
				<path class="st1" d="M366,103.8h-5.5v-15h5.5c2.2,0,3.9,0.7,5.1,2c1.1,1.3,1.7,3.1,1.7,5.4c0,1.5-0.3,2.8-0.8,4
				c-0.5,1.1-1.3,2-2.3,2.7C368.6,103.5,367.4,103.8,366,103.8z M366.1,91H363v10.8h3c1.3,0,2.4-0.5,3.2-1.4
				c0.8-0.9,1.2-2.3,1.2-4.1c0-1.7-0.3-3-1-3.9S367.5,91,366.1,91z" />
				<path class="st1" d="M376.1,91.4c-0.4,0-0.8-0.1-1-0.4s-0.4-0.6-0.4-1c0-0.4,0.1-0.7,0.4-1s0.6-0.4,1-0.4c0.4,0,0.8,0.1,1,0.4
				s0.4,0.6,0.4,1c0,0.4-0.1,0.8-0.4,1S376.5,91.4,376.1,91.4z M374.9,103.8V93.2h2.5v10.7H374.9z" />
				<path class="st1" d="M389.4,93.2v11.4c0,1.3-0.5,2.4-1.4,3.2s-2.3,1.2-3.9,1.2c-0.5,0-1.2-0.1-2.1-0.3c-0.8-0.2-1.5-0.5-2-0.8
				l0.7-1.8c0.7,0.3,1.2,0.5,1.7,0.7c0.5,0.1,1,0.2,1.5,0.2c0.9,0,1.6-0.2,2.1-0.6s0.8-1,0.8-1.7v-1.1c-0.4,0.2-0.8,0.4-1.2,0.5
				c-0.4,0.1-0.8,0.2-1.2,0.2c-1.1,0-2-0.2-2.8-0.7c-0.8-0.5-1.4-1.1-1.8-2s-0.6-1.8-0.6-3c0-1.1,0.2-2.1,0.6-2.9
				c0.4-0.8,1.1-1.5,1.9-2c0.8-0.5,1.8-0.7,2.8-0.7c0.4,0,0.9,0.1,1.5,0.3c0.5,0.2,1,0.5,1.5,0.8l0.5-0.9H389.4z M385.8,101.8
				c0.4-0.1,0.7-0.4,1.1-0.7v-5.2c-0.4-0.3-0.7-0.5-1.1-0.7c-0.4-0.1-0.8-0.2-1.2-0.2c-0.9,0-1.6,0.3-2.1,1
				c-0.5,0.6-0.8,1.5-0.8,2.5c0,1.1,0.3,1.9,0.8,2.6s1.2,1,2.1,1C385,102,385.4,101.9,385.8,101.8z" />
				<path class="st1" d="M393.2,91.4c-0.4,0-0.8-0.1-1-0.4s-0.4-0.6-0.4-1c0-0.4,0.1-0.7,0.4-1s0.6-0.4,1-0.4c0.4,0,0.8,0.1,1,0.4
				s0.4,0.6,0.4,1c0,0.4-0.1,0.8-0.4,1S393.6,91.4,393.2,91.4z M392,103.8V93.2h2.5v10.7H392z" />
				<path class="st1" d="M401.9,93.2l0.7,1.9H400v5.1c0,0.6,0.1,1,0.4,1.4c0.3,0.3,0.6,0.5,1.2,0.5c0.3,0,0.7-0.1,1.1-0.3l0.7,1.8
				c-0.2,0.1-0.5,0.3-0.9,0.4s-0.7,0.2-1.1,0.2c-1.2,0-2.1-0.3-2.8-0.9c-0.7-0.6-1-1.5-1-2.7v-5.5H396v-1.9h1.5v-2.6l2.5-0.5v3.1
				H401.9z" />
				<path class="st1" d="M405.9,95.8l-0.7-2c0.4-0.2,1-0.5,1.8-0.7c0.8-0.2,1.4-0.3,1.9-0.3c0.8,0,1.6,0.2,2.3,0.5
				c0.7,0.3,1.2,0.8,1.6,1.4c0.4,0.6,0.6,1.2,0.6,1.9v7.1h-1.6l-0.4-1.1c-0.4,0.4-0.9,0.7-1.4,1s-1.1,0.4-1.6,0.4
				c-1.2,0-2.2-0.3-2.8-0.9c-0.6-0.6-1-1.4-1-2.5c0-1.1,0.4-1.9,1.1-2.5c0.7-0.6,1.7-0.9,2.9-0.9h2.3c0-1.5-0.7-2.2-1.9-2.2
				C408,95.1,407,95.4,405.9,95.8z M406.8,100.7c0,0.4,0.1,0.7,0.4,1c0.3,0.3,0.7,0.4,1.1,0.4c0.5,0,0.9-0.1,1.4-0.3
				c0.5-0.2,0.9-0.5,1.2-0.9V99h-2.4c-0.5,0-1,0.2-1.3,0.5S406.8,100.2,406.8,100.7z" />
				<path class="st1" d="M416.1,103.8V88.5l2.5-0.2v15.5H416.1z" />
				<path class="st1" d="M422.5,91.4c-0.4,0-0.8-0.1-1-0.4s-0.4-0.6-0.4-1c0-0.4,0.1-0.7,0.4-1s0.6-0.4,1-0.4c0.4,0,0.8,0.1,1,0.4
				s0.4,0.6,0.4,1c0,0.4-0.1,0.8-0.4,1S422.9,91.4,422.5,91.4z M421.3,103.8V93.2h2.5v10.7H421.3z" />
				<path class="st1"
					d="M434.2,94.5l-5.7,7.3h5.7l0.2,2h-8.6l-0.3-1.3l5.7-7.3h-4.8l-0.5-2h8.3L434.2,94.5z" />
				<path class="st1" d="M436.9,95.8l-0.7-2c0.4-0.2,1-0.5,1.8-0.7c0.8-0.2,1.4-0.3,1.9-0.3c0.8,0,1.6,0.2,2.3,0.5
				c0.7,0.3,1.2,0.8,1.6,1.4c0.4,0.6,0.6,1.2,0.6,1.9v7.1h-1.6l-0.4-1.1c-0.4,0.4-0.9,0.7-1.4,1s-1.1,0.4-1.6,0.4
				c-1.2,0-2.2-0.3-2.8-0.9c-0.6-0.6-1-1.4-1-2.5c0-1.1,0.4-1.9,1.1-2.5c0.7-0.6,1.7-0.9,2.9-0.9h2.3c0-1.5-0.7-2.2-1.9-2.2
				C439,95.1,437.9,95.4,436.9,95.8z M437.7,100.7c0,0.4,0.1,0.7,0.4,1c0.3,0.3,0.7,0.4,1.1,0.4c0.5,0,0.9-0.1,1.4-0.3
				c0.5-0.2,0.9-0.5,1.2-0.9V99h-2.4c-0.5,0-1,0.2-1.3,0.5S437.7,100.2,437.7,100.7z" />
				<path class="st1" d="M451.7,93.2l0.7,1.9h-2.7v5.1c0,0.6,0.1,1,0.4,1.4c0.3,0.3,0.6,0.5,1.2,0.5c0.3,0,0.7-0.1,1.1-0.3l0.7,1.8
				c-0.2,0.1-0.5,0.3-0.9,0.4s-0.7,0.2-1.1,0.2c-1.2,0-2.1-0.3-2.8-0.9c-0.7-0.6-1-1.5-1-2.7v-5.5h-1.5v-1.9h1.5v-2.6l2.5-0.5v3.1
				H451.7z" />
				<path class="st1" d="M455.9,91.4c-0.4,0-0.8-0.1-1-0.4s-0.4-0.6-0.4-1c0-0.4,0.1-0.7,0.4-1s0.6-0.4,1-0.4c0.4,0,0.8,0.1,1,0.4
				s0.4,0.6,0.4,1c0,0.4-0.1,0.8-0.4,1S456.3,91.4,455.9,91.4z M454.7,103.8V93.2h2.5v10.7H454.7z" />
				<path class="st1"
					d="M469.4,101.4c-0.5,0.9-1.1,1.5-1.9,2c-0.8,0.5-1.8,0.7-2.9,0.7s-2.1-0.2-2.9-0.7c-0.8-0.5-1.5-1.1-1.9-2
				c-0.4-0.8-0.7-1.8-0.7-3c0-1.1,0.2-2.1,0.7-2.9s1.1-1.5,1.9-2c0.8-0.5,1.8-0.7,2.9-0.7s2.1,0.2,2.9,0.7c0.8,0.5,1.5,1.1,1.9,2
				c0.4,0.9,0.7,1.8,0.7,2.9C470.1,99.6,469.8,100.6,469.4,101.4z M466.7,101c0.5-0.7,0.8-1.5,0.8-2.5c0-1-0.3-1.9-0.8-2.5
				c-0.5-0.7-1.3-1-2.1-1c-0.9,0-1.6,0.3-2.1,1s-0.8,1.5-0.8,2.5c0,1,0.3,1.9,0.8,2.5c0.5,0.6,1.2,1,2.1,1S466.1,101.6,466.7,101z" />
				<path class="st1" d="M474.4,103.8h-2.5V93.2h1.6l0.4,1.3c0.6-0.5,1.3-0.9,2-1.2c0.7-0.3,1.4-0.4,2.1-0.4c1.2,0,2.1,0.4,2.7,1.1
				c0.6,0.7,0.8,1.8,0.8,3v6.9h-2.5v-6.7c0-1.5-0.5-2.2-1.6-2.2c-0.9,0-1.9,0.5-3.1,1.5V103.8z" />
			</g>
		</g>
	</g>
</svg>